<svg width="421" height="106" viewBox="0 0 421 106" fill="none" xmlns="http://www.w3.org/2000/svg">
<path fill-rule="evenodd" clip-rule="evenodd" d="M16.6452 33.4989C15.604 36.3936 15.1448 37.6704 15.7343 43.2723C15.7343 43.2723 17.0163 38.6192 22.0341 36.8063C27.052 34.9934 41.4324 33.9878 41.4324 33.9878C41.4324 33.9878 37.776 33.0712 37.1217 31.1693C35.9608 27.7949 38.9454 26.1955 38.9454 26.1955L68.3222 5.30541C65.7202 6.77777 63.2852 8.18933 60.9622 9.53603C51.7768 14.8617 44.3409 19.1728 35.2348 22.2164C43.3277 13.5951 49.6278 8.28971 59.5042 0L26.0135 24.206C26.0135 24.206 24.6666 28.1188 22.3657 29.843C20.7662 31.0416 17.0606 32.3299 17.0606 32.3299C16.9137 32.7523 16.775 33.1382 16.6452 33.4989ZM28.4062 27.0245C27.1815 27.9383 25.7535 30.1745 25.7535 30.1745C25.7535 30.1745 28.5314 30.1811 29.8264 29.014C30.8003 28.1363 31.5563 25.6981 31.5563 25.6981C31.5563 25.6981 29.621 26.118 28.4062 27.0245ZM42.0016 29.834C42.0016 29.834 48.7699 23.0259 54.9335 21.0466C60.3322 19.313 72.6732 20.0517 72.6732 20.0517C57.6562 21.6401 52.9512 24.1089 45.5245 28.0059C44.4242 28.5833 43.2638 29.1922 42.0016 29.834ZM90.2582 41.3902C81.5682 35.8371 61.9072 24.4344 61.9072 24.4344C61.9072 24.4344 72.2462 30.7722 77.7402 36.1585C84.3352 42.6253 87.6162 46.977 91.6592 55.282C94.8662 61.8681 96.7432 66.412 97.4472 73.124C98.1522 79.836 96.2012 90.0876 96.2012 90.0876C96.2012 90.0876 99.1542 82.952 100.763 75.7458C102.372 68.5396 102.912 62.9207 102.912 62.9207C102.912 62.9207 105.453 66.8003 106.412 68.5396C107.37 70.279 108.54 73.0501 108.54 73.0501C108.54 73.0501 109.317 65.2748 104.407 56.0001C100.763 49.1166 95.9072 45.0001 90.2582 41.3902ZM80.5432 42.2557C80.5432 42.2557 89.8782 54.3617 92.6402 63.5012C94.7752 70.5667 95.5752 76.6729 94.9172 82.2641C94.2742 87.7272 85.3672 95.7815 80.9342 99.1586C75.1742 103.547 72.3362 105.38 72.3362 105.38C72.3362 105.38 82.5892 96.2856 85.6752 84.5545C87.3892 78.0394 87.8972 74.1676 87.7732 67.4319C87.6822 62.512 87.5432 59.6727 86.2552 54.9233C84.8352 49.6856 80.5432 42.2557 80.5432 42.2557ZM75.3592 25.4631C71.6052 25.046 64.8962 24.4727 64.8962 24.4727C64.8962 24.4727 71.3732 26.9165 73.2802 27.9015C75.2682 28.9283 79.4032 31.2008 81.0722 32.2024C82.3372 32.9613 83.6922 33.7779 85.0462 34.5938L85.0512 34.5969L85.0572 34.6009C86.3752 35.3951 87.6922 36.1886 88.9232 36.9275C93.0382 39.3969 105.781 48.9016 105.781 48.9016C105.781 48.9016 97.2202 38.2097 94.7202 35.7097C94.4172 35.4074 94.0992 35.0806 93.7652 34.7369C91.8192 32.7369 89.3202 30.1679 86.1482 28.5666C83.3552 27.1566 77.5762 25.7094 75.3592 25.4631ZM44.2037 31.5009L58.9592 25.8639C58.9592 25.8639 71.8452 34.9321 77.4072 43.5001C82.6402 51.562 84.5492 59.0612 84.9072 67.0001C85.1712 72.8622 83.7612 82.5371 80.8442 88.3683C77.9262 94.1995 72.2572 100.076 64.9072 103.001C56.4852 106.352 44.7104 106.661 35.9072 104.501C27.2734 102.381 19.7363 97.583 15.4072 93.5001C11.2063 89.5382 5.60232 81.8751 2.90682 75.0001C-0.298877 66.8242 -0.361879 58.5635 0.406521 51.562C1.17492 44.5607 3.40402 39.1105 6.90722 33.0001C9.95022 27.6924 11.4072 26.5001 11.4072 26.5001C11.4072 26.5001 7.92812 33.6578 5.90722 41.0001C3.19242 50.8633 5.61302 62.5001 7.90722 68.0001C9.85342 72.6658 14.8581 78.4206 14.8581 78.4206C14.8581 78.4206 21.2829 85.6876 26.7485 88.3683C32.2048 91.0444 36.5881 92.4317 42.6647 92.3473C50.6967 92.2359 57.4032 88.7817 61.7522 84.7835C66.1842 80.7102 68.5012 77.3504 70.3522 71.6231C72.2032 65.8957 72.8172 58.4724 70.3522 51.562C68.1722 45.451 65.9492 41.7121 60.9022 37.6353C55.7366 33.4632 44.2037 31.5009 44.2037 31.5009Z" fill="url(#paint0_linear_2311_29)"/>
<mask id="mask0_2311_29" style="mask-type:luminance" maskUnits="userSpaceOnUse" x="0" y="0" width="109" height="106">
<path fill-rule="evenodd" clip-rule="evenodd" d="M16.6452 33.4989C15.604 36.3936 15.1448 37.6704 15.7343 43.2723C15.7343 43.2723 17.0163 38.6192 22.0341 36.8063C27.052 34.9934 41.4324 33.9878 41.4324 33.9878C41.4324 33.9878 37.776 33.0712 37.1217 31.1693C35.9608 27.7949 38.9454 26.1955 38.9454 26.1955L68.3222 5.30541C65.7202 6.77777 63.2852 8.18933 60.9622 9.53603C51.7768 14.8617 44.3409 19.1728 35.2348 22.2164C43.3277 13.5951 49.6278 8.28971 59.5042 0L26.0135 24.206C26.0135 24.206 24.6666 28.1188 22.3657 29.843C20.7662 31.0416 17.0606 32.3299 17.0606 32.3299C16.9137 32.7523 16.775 33.1382 16.6452 33.4989ZM28.4062 27.0245C27.1815 27.9383 25.7535 30.1745 25.7535 30.1745C25.7535 30.1745 28.5314 30.1811 29.8264 29.014C30.8003 28.1363 31.5563 25.6981 31.5563 25.6981C31.5563 25.6981 29.621 26.118 28.4062 27.0245ZM42.0016 29.834C42.0016 29.834 48.7699 23.0259 54.9335 21.0466C60.3322 19.313 72.6732 20.0517 72.6732 20.0517C57.6562 21.6401 52.9512 24.1089 45.5245 28.0059C44.4242 28.5833 43.2638 29.1922 42.0016 29.834ZM90.2582 41.3902C81.5682 35.8371 61.9072 24.4344 61.9072 24.4344C61.9072 24.4344 72.2462 30.7722 77.7402 36.1585C84.3352 42.6253 87.6162 46.977 91.6592 55.282C94.8662 61.8681 96.7432 66.412 97.4472 73.124C98.1522 79.836 96.2012 90.0876 96.2012 90.0876C96.2012 90.0876 99.1542 82.952 100.763 75.7458C102.372 68.5396 102.912 62.9207 102.912 62.9207C102.912 62.9207 105.453 66.8003 106.412 68.5396C107.37 70.279 108.54 73.0501 108.54 73.0501C108.54 73.0501 109.317 65.2748 104.407 56.0001C100.763 49.1166 95.9072 45.0001 90.2582 41.3902ZM80.5432 42.2557C80.5432 42.2557 89.8782 54.3617 92.6402 63.5012C94.7752 70.5667 95.5752 76.6729 94.9172 82.2641C94.2742 87.7272 85.3672 95.7815 80.9342 99.1586C75.1742 103.547 72.3362 105.38 72.3362 105.38C72.3362 105.38 82.5892 96.2856 85.6752 84.5545C87.3892 78.0394 87.8972 74.1676 87.7732 67.4319C87.6822 62.512 87.5432 59.6727 86.2552 54.9233C84.8352 49.6856 80.5432 42.2557 80.5432 42.2557ZM75.3592 25.4631C71.6052 25.046 64.8962 24.4727 64.8962 24.4727C64.8962 24.4727 71.3732 26.9165 73.2802 27.9015C75.2682 28.9283 79.4032 31.2008 81.0722 32.2024C82.3372 32.9613 83.6922 33.7779 85.0462 34.5938L85.0512 34.5969L85.0572 34.6009C86.3752 35.3951 87.6922 36.1886 88.9232 36.9275C93.0382 39.3969 105.781 48.9016 105.781 48.9016C105.781 48.9016 97.2202 38.2097 94.7202 35.7097C94.4172 35.4074 94.0992 35.0806 93.7652 34.7369C91.8192 32.7369 89.3202 30.1679 86.1482 28.5666C83.3552 27.1566 77.5762 25.7094 75.3592 25.4631ZM44.2037 31.5009L58.9592 25.8639C58.9592 25.8639 71.8452 34.9321 77.4072 43.5001C82.6402 51.562 84.5492 59.0612 84.9072 67.0001C85.1712 72.8622 83.7612 82.5371 80.8442 88.3683C77.9262 94.1995 72.2572 100.076 64.9072 103.001C56.4852 106.352 44.7104 106.661 35.9072 104.501C27.2734 102.381 19.7363 97.583 15.4072 93.5001C11.2063 89.5382 5.60232 81.8751 2.90682 75.0001C-0.298877 66.8242 -0.361879 58.5635 0.406521 51.562C1.17492 44.5607 3.40402 39.1105 6.90722 33.0001C9.95022 27.6924 11.4072 26.5001 11.4072 26.5001C11.4072 26.5001 7.92812 33.6578 5.90722 41.0001C3.19242 50.8633 5.61302 62.5001 7.90722 68.0001C9.85342 72.6658 14.8581 78.4206 14.8581 78.4206C14.8581 78.4206 21.2829 85.6876 26.7485 88.3683C32.2048 91.0444 36.5881 92.4317 42.6647 92.3473C50.6967 92.2359 57.4032 88.7817 61.7522 84.7835C66.1842 80.7102 68.5012 77.3504 70.3522 71.6231C72.2032 65.8957 72.8172 58.4724 70.3522 51.562C68.1722 45.451 65.9492 41.7121 60.9022 37.6353C55.7366 33.4632 44.2037 31.5009 44.2037 31.5009Z" fill="white"/>
</mask>
<g mask="url(#mask0_2311_29)">
<path d="M16.645 33.4994L15.7045 33.1597L15.704 33.1609L16.645 33.4994ZM16.645 33.4994L17.5858 33.8386L17.5902 33.8261L16.645 33.4994ZM15.7343 43.2723L14.7398 43.3769L16.6983 43.5379L15.7343 43.2723ZM41.4324 33.9878L41.5021 34.9854L41.6755 33.0178L41.4324 33.9878ZM38.9454 26.1955L39.4178 27.0769L39.4735 27.0471L39.525 27.0104L38.9454 26.1955ZM68.3222 5.30539L68.9012 6.12035L67.8292 4.43508L68.3222 5.30539ZM35.2348 22.2164L34.5057 21.532L35.5518 23.1649L35.2348 22.2164ZM59.5042 -1.78814e-05L60.1472 0.765928L58.9182 -0.810486L59.5042 -1.78814e-05ZM26.0135 24.206L25.4277 23.3955L25.171 23.581L25.068 23.8805L26.0135 24.206ZM17.0606 32.3299L16.7322 31.3853L16.2751 31.5443L16.1161 32.0014L17.0606 32.3299ZM16.645 33.4994L15.7045 33.1597L15.7002 33.1717L16.645 33.4994ZM25.7535 30.1745L24.9107 29.6363L23.9312 31.1702L25.7511 31.1745L25.7535 30.1745ZM31.5563 25.6981L32.5114 25.9942L33.0189 24.3575L31.3442 24.7208L31.5563 25.6981ZM42.0016 29.834L41.2924 29.129L42.4549 30.7254L42.0016 29.834ZM72.6732 20.0517L72.7782 21.0462L72.7332 19.0535L72.6732 20.0517ZM45.5245 28.0059L45.9717 28.9003L45.9804 28.896L45.9891 28.8914L45.5245 28.0059ZM45.5245 28.0059L45.0772 27.1115L45.0658 27.1172L45.0546 27.1232L45.5245 28.0059ZM45.5245 28.0059L45.9891 28.8914L45.9939 28.8889L45.5245 28.0059ZM61.9072 24.4344L62.4092 23.5693L61.3842 25.2869L61.9072 24.4344ZM96.2012 90.0876L95.2192 89.9007L97.1252 90.4699L96.2012 90.0876ZM102.912 62.9207L103.749 62.373L102.19 59.9913L101.917 62.825L102.912 62.9207ZM108.54 73.0501L107.619 73.439L109.535 73.1495L108.54 73.0501ZM80.5432 42.2557L81.3352 41.645L79.6772 42.7559L80.5432 42.2557ZM72.3362 105.38L71.6732 104.631L72.8792 106.22L72.3362 105.38ZM64.8962 24.4727L64.9812 23.4764L64.5432 25.4084L64.8962 24.4727ZM85.0462 34.5938L85.5632 33.7377L85.5622 33.7374L85.0462 34.5938ZM85.0572 34.6009L84.5402 35.4568L84.5412 35.4573L85.0572 34.6009ZM105.781 48.9016L105.183 49.7031L106.561 48.2765L105.781 48.9016ZM93.7652 34.7369L94.4822 34.0395L94.4722 34.0298L93.7652 34.7369ZM93.7652 34.7369L93.0482 35.4342L93.0582 35.4439L93.7652 34.7369ZM58.9592 25.8639L59.5352 25.0461L59.0992 24.7398L58.6022 24.9298L58.9592 25.8639ZM44.2037 31.5009L43.8468 30.5668L40.4279 31.8729L44.036 32.4867L44.2037 31.5009ZM11.4072 26.5001L12.3066 26.9373L10.7739 25.7262L11.4072 26.5001ZM14.8581 78.4206L14.1035 79.0769L14.1089 79.083L14.8581 78.4206ZM16.7288 43.1676C16.4365 40.3903 16.4135 38.7607 16.5706 37.4937C16.7262 36.2384 17.0618 35.2956 17.5858 33.8386L15.704 33.1609C15.1869 34.5987 14.7726 35.7406 14.5858 37.2476C14.4004 38.7429 14.4425 40.5524 14.7398 43.3769L16.7288 43.1676ZM21.6943 35.8658C18.9413 36.8605 17.2113 38.6379 16.1763 40.1558C15.6595 40.9137 15.3127 41.6111 15.0935 42.1238C14.9837 42.3806 14.9053 42.5925 14.8533 42.7444C14.8272 42.8203 14.8077 42.8814 14.7941 42.9257C14.7872 42.9478 14.7819 42.9658 14.7779 42.9794C14.776 42.9862 14.7743 42.9919 14.7731 42.9964C14.7724 42.9987 14.7719 43.0007 14.7714 43.0024C14.7711 43.0032 14.7709 43.004 14.7707 43.0047C14.7706 43.0051 14.7705 43.0056 14.7704 43.0058C14.7703 43.0062 14.7702 43.0067 15.7343 43.2723C16.6983 43.5379 16.6984 43.5375 16.6983 43.5379C16.6983 43.538 16.698 43.5392 16.6979 43.5394C16.6978 43.5398 16.6977 43.5402 16.6976 43.5405C16.6976 43.5404 16.6975 43.541 16.6976 43.5405C16.6976 43.5405 16.6976 43.5399 16.6983 43.5379C16.6995 43.5337 16.7019 43.5258 16.7057 43.5135C16.7133 43.4887 16.7263 43.4481 16.7451 43.3932C16.7827 43.2835 16.8437 43.1177 16.9325 42.91C17.1105 42.4936 17.3978 41.9144 17.8287 41.2825C18.6892 40.0206 20.1091 38.5651 22.3739 37.7468L21.6943 35.8658ZM41.4324 33.9878C41.3626 32.9902 41.3625 32.9903 41.3623 32.9903C41.3626 32.9903 41.3622 32.9903 41.3623 32.9903C41.3618 32.9903 41.3605 32.9904 41.3596 32.9905C41.3577 32.9906 41.355 32.9908 41.3514 32.991C41.3442 32.9915 41.3335 32.9923 41.3196 32.9933C41.2917 32.9953 41.2504 32.9983 41.1966 33.0022C41.0888 33.0101 40.9307 33.0219 40.7279 33.0375C40.3223 33.0687 39.738 33.1153 39.0214 33.1769C37.5887 33.3001 35.625 33.4833 33.5024 33.7236C29.3056 34.1987 24.3339 34.9122 21.6943 35.8658L22.3739 37.7468C24.7523 36.8875 29.4797 36.1918 33.7274 35.7109C35.8272 35.4732 37.7722 35.2917 39.1926 35.1696C39.9026 35.1086 40.481 35.0624 40.8814 35.0316C41.0816 35.0162 41.2373 35.0046 41.3427 34.9969C41.3954 34.993 41.4355 34.9901 41.4623 34.9882C41.4757 34.9872 41.4858 34.9865 41.4925 34.9861C41.4958 34.9858 41.4983 34.9856 41.4999 34.9855C41.5007 34.9855 41.5017 34.9854 41.5021 34.9854C41.502 34.9854 41.5022 34.9854 41.5021 34.9854C41.5021 34.9854 41.5021 34.9854 41.4324 33.9878ZM36.1761 31.4946C36.4232 32.2128 36.9267 32.7704 37.4406 33.1881C37.9607 33.6108 38.5574 33.9438 39.0979 34.1972C39.6428 34.4527 40.1603 34.6409 40.5395 34.7652C40.7301 34.8276 40.8883 34.8747 41.0006 34.9066C41.0568 34.9226 41.1017 34.9348 41.1337 34.9433C41.1497 34.9476 41.1624 34.9509 41.1717 34.9533C41.1764 34.9545 41.1802 34.9555 41.1831 34.9563C41.1846 34.9566 41.1858 34.9569 41.1868 34.9572C41.1873 34.9573 41.1878 34.9574 41.1882 34.9575C41.1881 34.9574 41.1884 34.9576 41.1882 34.9575C41.1885 34.9575 41.1892 34.9578 41.4324 33.9878C41.6755 33.0178 41.6753 33.0178 41.6755 33.0178C41.6757 33.0178 41.6765 33.0181 41.6766 33.0181C41.6769 33.0182 41.6767 33.0181 41.6766 33.0181C41.676 33.018 41.6742 33.0175 41.672 33.0169C41.6674 33.0157 41.6596 33.0137 41.6486 33.0108C41.6267 33.0049 41.5924 32.9956 41.5474 32.9828C41.4572 32.9572 41.3246 32.9178 41.1622 32.8646C40.8353 32.7575 40.3979 32.5978 39.9469 32.3863C39.4915 32.1728 39.0515 31.9201 38.702 31.6361C38.3463 31.347 38.1474 31.0768 38.0673 30.844L36.1761 31.4946ZM38.9454 26.1955C38.4731 25.3141 38.4726 25.3143 38.4722 25.3146C38.472 25.3147 38.4715 25.3149 38.4712 25.3151C38.4705 25.3155 38.4697 25.3159 38.469 25.3163C38.4674 25.3172 38.4656 25.3181 38.4637 25.3192C38.4598 25.3213 38.4552 25.3238 38.4499 25.3268C38.4393 25.3327 38.4258 25.3403 38.4098 25.3497C38.3777 25.3683 38.3351 25.3938 38.2839 25.4263C38.1816 25.4912 38.0435 25.5847 37.8849 25.7075C37.5701 25.9513 37.1606 26.3215 36.7911 26.8266C36.0284 27.8693 35.4729 29.4506 36.1761 31.4946L38.0673 30.844C37.6096 29.5137 37.966 28.608 38.4054 28.0074C38.637 27.6908 38.901 27.4503 39.1096 27.2887C39.2127 27.2089 39.2987 27.151 39.3551 27.1153C39.3832 27.0974 39.4036 27.0853 39.4147 27.0789C39.4202 27.0757 39.4233 27.0739 39.4239 27.0736C39.4242 27.0734 39.4239 27.0736 39.4229 27.0741C39.4224 27.0744 39.4217 27.0748 39.4209 27.0753C39.4204 27.0755 39.42 27.0757 39.4195 27.076C39.4196 27.076 39.4192 27.0761 39.4195 27.076C39.419 27.0763 39.4178 27.0769 38.9454 26.1955ZM67.7422 4.49044L38.3659 25.3805L39.525 27.0104L68.9012 6.12035L67.7422 4.49044ZM61.4642 10.4012C63.7872 9.05414 66.2182 7.64511 68.8142 6.17571L67.8292 4.43508C65.2222 5.91038 62.7832 7.32448 60.4612 8.67089L61.4642 10.4012ZM35.5518 23.1649C44.7697 20.0839 52.2911 15.7194 61.4642 10.4012L60.4612 8.67089C51.2625 14.004 43.9121 18.2617 34.9178 21.268L35.5518 23.1649ZM58.8612 -0.76596C48.9851 7.52362 42.6435 12.8628 34.5057 21.532L35.9639 22.9008C44.0118 14.3274 50.2706 9.05575 60.1472 0.765928L58.8612 -0.76596ZM26.5993 25.0164L60.0892 0.810448L58.9182 -0.810486L25.4277 23.3955L26.5993 25.0164ZM22.9654 30.6432C24.2991 29.6438 25.2953 28.0713 25.9386 26.8413C26.2679 26.2116 26.5208 25.6401 26.6917 25.2252C26.7774 25.0173 26.8429 24.8476 26.8876 24.7281C26.91 24.6684 26.9272 24.6211 26.9391 24.5878C26.9451 24.5712 26.9497 24.5581 26.9531 24.5486C26.9547 24.5439 26.9561 24.5401 26.9571 24.5372C26.9576 24.5358 26.958 24.5346 26.9583 24.5336C26.9585 24.5331 26.9586 24.5327 26.9587 24.5323C26.9587 24.5324 26.9588 24.5322 26.9587 24.5323C26.9588 24.5321 26.9591 24.5314 26.0135 24.206C25.068 23.8805 25.0679 23.8806 25.068 23.8805C25.068 23.8806 25.068 23.8804 25.068 23.8805C25.0677 23.8814 25.067 23.8831 25.0661 23.8859C25.0642 23.8913 25.061 23.9004 25.0565 23.9128C25.0476 23.9377 25.0336 23.9762 25.0146 24.0268C24.9767 24.1281 24.9191 24.2775 24.8425 24.4634C24.689 24.836 24.4613 25.3504 24.1663 25.9144C23.5609 27.0719 22.7332 28.3179 21.766 29.0427L22.9654 30.6432ZM17.0606 32.3299C17.389 33.2744 17.3891 33.2744 17.3892 33.2743C17.3894 33.2742 17.3899 33.2741 17.3903 33.274C17.3909 33.2738 17.3918 33.2734 17.3929 33.2731C17.395 33.2723 17.3981 33.2712 17.402 33.2699C17.4099 33.2671 17.4212 33.2631 17.4358 33.258C17.465 33.2477 17.5074 33.2326 17.5614 33.2132C17.6695 33.1743 17.8247 33.1177 18.0154 33.0463C18.3964 32.9035 18.9219 32.7003 19.4998 32.4582C20.6243 31.9871 22.0558 31.3248 22.9654 30.6432L21.766 29.0427C21.0761 29.5597 19.8551 30.1409 18.7269 30.6136C18.1784 30.8434 17.6776 31.0371 17.3138 31.1734C17.1322 31.2414 16.9853 31.2949 16.8845 31.3312C16.8341 31.3493 16.7953 31.3631 16.7695 31.3722C16.7565 31.3768 16.7468 31.3802 16.7406 31.3824C16.7374 31.3835 16.7352 31.3843 16.7338 31.3848C16.7331 31.385 16.7325 31.3852 16.7322 31.3853C16.7323 31.3852 16.7322 31.3853 17.0606 32.3299ZM17.5862 33.8372C17.7158 33.477 17.8563 33.0864 18.0051 32.6583L16.1161 32.0014C15.9712 32.4182 15.8344 32.7986 15.7045 33.1597L17.5862 33.8372ZM25.7535 30.1745C26.5963 30.7127 26.5963 30.7128 26.5962 30.7129C26.596 30.7132 26.5963 30.7129 26.5962 30.7129C26.5966 30.7122 26.5976 30.7107 26.5987 30.709C26.6008 30.7057 26.6043 30.7003 26.609 30.693C26.6185 30.6784 26.6331 30.6559 26.6524 30.6266C26.6911 30.5679 26.7484 30.4818 26.8214 30.375C26.9676 30.161 27.1747 29.8667 27.4176 29.5461C27.9226 28.8796 28.5139 28.1918 29.0042 27.8259L27.8082 26.223C27.0738 26.771 26.3388 27.6582 25.8235 28.3383C25.5563 28.691 25.3299 29.0128 25.1701 29.2467C25.09 29.3638 25.0263 29.4595 24.982 29.5267C24.9599 29.5603 24.9426 29.5868 24.9306 29.6054C24.9246 29.6147 24.9199 29.622 24.9165 29.6272C24.9149 29.6298 24.9135 29.6318 24.9126 29.6334C24.9121 29.6341 24.9117 29.6348 24.9114 29.6353C24.9116 29.6351 24.9112 29.6355 24.9114 29.6353C24.9114 29.6354 24.9107 29.6362 24.9107 29.6363C24.9106 29.6364 24.9107 29.6363 25.7535 30.1745ZM29.157 28.2711C28.7335 28.6528 27.9605 28.9073 27.1382 29.0458C26.7526 29.1108 26.4006 29.1433 26.1451 29.1593C26.018 29.1673 25.9165 29.1711 25.8486 29.1729C25.8147 29.1738 25.7894 29.1742 25.7735 29.1744C25.7656 29.1745 25.7601 29.1745 25.7571 29.1745C25.7556 29.1745 25.7547 29.1745 25.7545 29.1745C25.7543 29.1745 25.7544 29.1745 25.7545 29.1745C25.7546 29.1745 25.7558 29.1745 25.7535 30.1745C25.7511 31.1745 25.7508 31.1745 25.7511 31.1745C25.7514 31.1745 25.7528 31.1745 25.7533 31.1745C25.7542 31.1745 25.7552 31.1745 25.7565 31.1745C25.7589 31.1745 25.7621 31.1745 25.7659 31.1745C25.7735 31.1745 25.7837 31.1744 25.7965 31.1743C25.8219 31.174 25.8575 31.1734 25.9021 31.1722C25.9912 31.1698 26.1168 31.165 26.2704 31.1554C26.5762 31.1362 26.9997 31.0973 27.4704 31.018C28.3609 30.8681 29.6244 30.5423 30.4959 29.7568L29.157 28.2711ZM31.5563 25.6981C30.6011 25.402 30.6012 25.4019 30.6012 25.4017C30.601 25.4022 30.6007 25.4033 30.6002 25.405C30.5992 25.4082 30.5974 25.4137 30.595 25.4213C30.5901 25.4365 30.5825 25.4601 30.5723 25.4911C30.5518 25.5532 30.5209 25.6447 30.4806 25.758C30.3998 25.9855 30.2829 26.2961 30.1386 26.6303C29.8267 27.3521 29.4653 27.9933 29.157 28.2711L30.4959 29.7568C31.1615 29.157 31.6649 28.1402 31.9746 27.4235C32.1409 27.0384 32.2739 26.6847 32.3652 26.4276C32.4111 26.2986 32.4468 26.1927 32.4715 26.118C32.4838 26.0807 32.4934 26.051 32.5001 26.0301C32.5034 26.0196 32.5061 26.0113 32.508 26.0053C32.5089 26.0023 32.5097 25.9998 32.5102 25.998C32.5105 25.9971 32.5108 25.9963 32.511 25.9957C32.5111 25.9954 32.5114 25.9945 32.5114 25.9942C32.5114 25.9943 32.5115 25.9941 32.5114 25.9942C32.5115 25.9941 32.5114 25.9942 31.5563 25.6981ZM29.0042 27.8259C29.488 27.465 30.1605 27.1736 30.7615 26.9672C31.053 26.8671 31.31 26.7929 31.493 26.744C31.5841 26.7197 31.6561 26.7018 31.7038 26.6904C31.7277 26.6847 31.7454 26.6806 31.7564 26.6781C31.7619 26.6768 31.7657 26.676 31.7677 26.6755C31.7687 26.6753 31.7692 26.6752 31.7694 26.6751C31.7696 26.6751 31.7693 26.6751 31.7694 26.6751C31.7693 26.6751 31.7683 26.6754 31.5563 25.6981C31.3442 24.7208 31.3444 24.7208 31.3442 24.7208C31.3444 24.7208 31.3441 24.7208 31.3442 24.7208C31.344 24.7209 31.343 24.7211 31.3426 24.7212C31.342 24.7213 31.3412 24.7215 31.3404 24.7217C31.3386 24.7221 31.3364 24.7226 31.3337 24.7232C31.3283 24.7244 31.3211 24.726 31.3121 24.728C31.2941 24.7321 31.2691 24.7379 31.2377 24.7455C31.1748 24.7605 31.0861 24.7826 30.9768 24.8118C30.7589 24.87 30.4562 24.9574 30.112 25.0756C29.4417 25.3058 28.5392 25.6775 27.8082 26.223L29.0042 27.8259ZM54.6278 20.0945C51.3689 21.141 48.0207 23.4311 45.5355 25.3985C44.2814 26.3913 43.2243 27.3204 42.4801 28.0018C42.1078 28.3427 41.8131 28.6223 41.6104 28.8177C41.5091 28.9154 41.4307 28.9921 41.3771 29.0449C41.3503 29.0713 41.3297 29.0918 41.3155 29.1059C41.3084 29.113 41.3029 29.1184 41.2991 29.1223C41.2971 29.1242 41.2956 29.1258 41.2945 29.1269C41.294 29.1274 41.2935 29.1279 41.2932 29.1282C41.2933 29.1281 41.293 29.1284 41.2932 29.1282C41.2931 29.1283 41.2924 29.129 42.0016 29.834C42.7108 30.539 42.7107 30.5391 42.7106 30.5392C42.7111 30.5386 42.7126 30.5372 42.714 30.5358C42.7167 30.5331 42.721 30.5288 42.7269 30.523C42.7387 30.5112 42.7568 30.4932 42.7811 30.4692C42.8297 30.4214 42.9028 30.3499 42.9985 30.2575C43.1901 30.0728 43.4723 29.8051 43.8308 29.4768C44.5483 28.8199 45.5685 27.9232 46.7769 26.9666C49.2167 25.0351 52.3345 22.9315 55.2393 21.9987L54.6278 20.0945ZM72.6732 20.0517C72.7332 19.0535 72.7332 19.0535 72.7332 19.0535C72.7332 19.0534 72.7312 19.0534 72.7302 19.0534C72.7282 19.0533 72.7262 19.0531 72.7232 19.0529C72.7162 19.0525 72.7072 19.052 72.6952 19.0513C72.6702 19.0499 72.6352 19.0479 72.5882 19.0453C72.4942 19.0402 72.3572 19.0331 72.1812 19.0245C71.8292 19.0075 71.3212 18.9852 70.6952 18.964C69.4432 18.9215 67.7172 18.8829 65.8192 18.8991C62.0722 18.931 57.4912 19.1749 54.6278 20.0945L55.2393 21.9987C57.7742 21.1847 62.0632 20.9311 65.8362 20.899C67.6992 20.8832 69.3952 20.921 70.6272 20.9628C71.2422 20.9837 71.7402 21.0056 72.0842 21.0222C72.2562 21.0305 72.3892 21.0375 72.4792 21.0424C72.5242 21.0448 72.5582 21.0467 72.5812 21.048C72.5922 21.0487 72.6002 21.0492 72.6062 21.0495C72.6092 21.0497 72.6112 21.0498 72.6122 21.0499C72.6122 21.0499 72.6142 21.0499 72.6142 21.05C72.6142 21.05 72.6142 21.05 72.6732 20.0517ZM45.9891 28.8914C49.7078 26.9401 52.6718 25.3869 56.5632 24.1135C60.4552 22.84 65.3112 21.8361 72.7782 21.0462L72.5682 19.0573C65.0182 19.8558 60.0132 20.8804 55.9415 22.2127C51.8697 23.545 48.7679 25.1747 45.0598 27.1204L45.9891 28.8914ZM42.4549 30.7254C43.7235 30.0802 44.8894 29.4685 45.9891 28.8914L45.0598 27.1204C43.959 27.6981 42.804 28.3041 41.5483 28.9426L42.4549 30.7254ZM61.9072 24.4344C61.4052 25.2994 61.4052 25.2995 61.4062 25.2995C61.4062 25.2994 61.4062 25.2996 61.4062 25.2995C61.4072 25.2999 61.4082 25.3008 61.4092 25.3015C61.4112 25.3028 61.4152 25.3049 61.4192 25.3076C61.4292 25.3131 61.4432 25.3213 61.4622 25.3322C61.4992 25.3538 61.5552 25.3861 61.6282 25.4285C61.7742 25.5133 61.9892 25.6384 62.2662 25.7996C62.8202 26.1219 63.6222 26.5888 64.6112 27.1663C66.5892 28.3215 69.3162 29.9195 72.3152 31.6909C78.3182 35.2365 85.3922 39.467 89.7202 42.2329L90.7972 40.5476C86.4352 37.7602 79.3332 33.5129 73.3322 29.9688C70.3302 28.1954 67.5992 26.5956 65.6192 25.4393C64.6292 24.8611 63.8272 24.3937 63.2722 24.0708C62.9942 23.9094 62.7782 23.7841 62.6322 23.6991C62.5592 23.6566 62.5032 23.6242 62.4662 23.6024C62.4472 23.5915 62.4332 23.5832 62.4232 23.5777C62.4182 23.5749 62.4152 23.5728 62.4122 23.5714C62.4112 23.5708 62.4102 23.5702 62.4102 23.5699C62.4092 23.5697 62.4092 23.5694 62.4092 23.5693C62.4092 23.5692 62.4092 23.5693 61.9072 24.4344ZM78.4402 35.4444C75.6282 32.6881 71.6112 29.7171 68.3312 27.4535C66.6852 26.3171 65.2112 25.3504 64.1492 24.6677C63.6182 24.3262 63.1892 24.0555 62.8932 23.8698C62.7452 23.7769 62.6292 23.7053 62.5512 23.6567C62.5122 23.6324 62.4822 23.6139 62.4612 23.6013C62.4512 23.5951 62.4432 23.5903 62.4382 23.587C62.4352 23.5854 62.4332 23.5841 62.4322 23.5833C62.4312 23.5828 62.4312 23.5825 62.4302 23.5823C62.4302 23.5822 62.4302 23.5818 61.9072 24.4344C61.3842 25.2869 61.3842 25.2869 61.3842 25.2869C61.3842 25.287 61.3842 25.287 61.3852 25.2871C61.3852 25.2872 61.3852 25.2875 61.3862 25.2878C61.3872 25.2885 61.3892 25.2895 61.3912 25.291C61.3962 25.2938 61.4032 25.2982 61.4122 25.3041C61.4312 25.3159 61.4602 25.3336 61.4982 25.357C61.5742 25.4039 61.6862 25.4737 61.8312 25.5647C62.1222 25.7466 62.5442 26.0131 63.0682 26.35C64.1162 27.0239 65.5702 27.9783 67.1952 29.0996C70.4582 31.3515 74.3572 34.2425 77.0402 36.8725L78.4402 35.4444ZM92.5582 54.8442C88.4602 46.4267 85.1092 41.9834 78.4402 35.4444L77.0402 36.8725C83.5622 43.2672 86.7712 47.5272 90.7602 55.7197L92.5582 54.8442ZM98.4422 73.0196C97.7192 66.133 95.7812 61.4639 92.5582 54.8442L90.7602 55.7197C93.9502 62.2723 95.7662 66.691 96.4532 73.2284L98.4422 73.0196ZM96.2012 90.0876C97.1842 90.2745 97.1842 90.2744 97.1842 90.2742C97.1842 90.2744 97.1842 90.2741 97.1842 90.2742C97.1842 90.2737 97.1842 90.2727 97.1842 90.2719C97.1842 90.2704 97.1852 90.2683 97.1852 90.2656C97.1862 90.2602 97.1882 90.2523 97.1902 90.242C97.1942 90.2214 97.1992 90.1911 97.2072 90.1517C97.2212 90.0729 97.2422 89.9573 97.2682 89.8083C97.3212 89.5104 97.3962 89.0786 97.4822 88.5401C97.6562 87.4634 97.8802 85.9577 98.0822 84.2394C98.4832 80.823 98.8062 76.4909 98.4422 73.0196L96.4532 73.2284C96.7932 76.469 96.4932 80.6188 96.0952 84.0061C95.8982 85.6898 95.6782 87.1664 95.5082 88.2217C95.4232 88.7492 95.3502 89.1707 95.2992 89.4596C95.2742 89.604 95.2532 89.7152 95.2402 89.7899C95.2332 89.8272 95.2272 89.8554 95.2242 89.874C95.2222 89.8833 95.2212 89.8902 95.2202 89.8947C95.2202 89.8969 95.2192 89.8985 95.2192 89.8995C95.2192 89.9 95.2192 89.9005 95.2192 89.9007C95.2192 89.9007 95.2192 89.9007 96.2012 90.0876ZM99.7872 75.5279C98.9942 79.0785 97.8672 82.6236 96.9352 85.2888C96.4692 86.6195 96.0542 87.7264 95.7552 88.4997C95.6062 88.8863 95.4862 89.1892 95.4032 89.3948C95.3622 89.4975 95.3302 89.576 95.3092 89.6283C95.2982 89.6544 95.2902 89.6741 95.2852 89.687C95.2822 89.6934 95.2802 89.6982 95.2792 89.7013C95.2782 89.7028 95.2782 89.7039 95.2782 89.7046C95.2772 89.7049 95.2772 89.7051 95.2772 89.7052C95.2772 89.7052 95.2772 89.7053 96.2012 90.0876C97.1252 90.4699 97.1252 90.47 97.1252 90.4699C97.1252 90.4698 97.1262 90.4694 97.1262 90.4693C97.1262 90.469 97.1262 90.4685 97.1262 90.468C97.1272 90.4669 97.1272 90.4654 97.1282 90.4635C97.1302 90.4597 97.1322 90.4541 97.1352 90.4468C97.1412 90.4323 97.1502 90.411 97.1612 90.3831C97.1842 90.3274 97.2172 90.2455 97.2592 90.1391C97.3452 89.9262 97.4682 89.6154 97.6212 89.2204C97.9262 88.4306 98.3492 87.3033 98.8232 85.9493C99.7692 83.2452 100.922 79.6194 101.739 75.9638L99.7872 75.5279ZM102.912 62.9207C101.917 62.825 101.917 62.825 101.917 62.825C101.917 62.8247 101.917 62.8251 101.917 62.825C101.917 62.8254 101.917 62.8267 101.917 62.8278C101.917 62.8301 101.916 62.8338 101.916 62.8388C101.915 62.8488 101.913 62.8641 101.911 62.8847C101.907 62.9259 101.901 62.988 101.892 63.07C101.874 63.2341 101.847 63.4779 101.81 63.7935C101.735 64.4249 101.618 65.3436 101.452 66.4866C101.118 68.7735 100.585 71.9545 99.7872 75.5279L101.739 75.9638C102.55 72.331 103.092 69.0994 103.431 66.7753C103.6 65.6128 103.719 64.6764 103.796 64.0291C103.834 63.7054 103.862 63.4539 103.88 63.2825C103.89 63.1968 103.896 63.1312 103.901 63.0865C103.903 63.0642 103.905 63.0471 103.906 63.0354C103.907 63.0295 103.907 63.025 103.907 63.0219C103.908 63.0203 103.908 63.0191 103.908 63.0182C103.908 63.0177 103.908 63.0174 103.908 63.0171C103.908 63.0172 103.908 63.0169 103.908 63.0171C103.908 63.017 103.908 63.0165 102.912 62.9207ZM107.287 68.0568C106.79 67.1556 105.899 65.7254 105.146 64.5414C104.767 63.9448 104.418 63.4031 104.164 63.0106C104.037 62.8142 103.933 62.6551 103.861 62.5449C103.825 62.4899 103.797 62.447 103.778 62.4179C103.769 62.4033 103.762 62.3921 103.757 62.3846C103.754 62.3808 103.752 62.3779 103.751 62.376C103.75 62.375 103.75 62.3743 103.75 62.3738C103.749 62.3735 103.749 62.3731 103.749 62.373C103.749 62.3731 103.749 62.3729 103.749 62.373C103.749 62.373 103.749 62.373 102.912 62.9207C102.076 63.4685 102.076 63.4685 102.076 63.4685C102.076 63.4683 102.076 63.4686 102.076 63.4685C102.077 63.469 102.077 63.4702 102.078 63.4711C102.079 63.4729 102.081 63.4756 102.083 63.4793C102.088 63.4865 102.095 63.4974 102.104 63.5116C102.123 63.5401 102.15 63.5823 102.186 63.6367C102.257 63.7455 102.359 63.9031 102.485 64.0976C102.737 64.4869 103.083 65.0238 103.459 65.6145C104.215 66.8051 105.074 68.1843 105.536 69.0224L107.287 68.0568ZM108.54 73.0501C109.462 72.6612 109.462 72.6612 109.462 72.6611C109.461 72.661 109.461 72.6607 109.461 72.6604C109.461 72.66 109.461 72.6594 109.461 72.6587C109.46 72.6572 109.459 72.655 109.458 72.6522C109.455 72.6465 109.452 72.6383 109.447 72.6276C109.438 72.6061 109.425 72.5748 109.408 72.5344C109.373 72.4537 109.323 72.3369 109.26 72.1915C109.134 71.9009 108.955 71.4953 108.746 71.0345C108.332 70.1192 107.786 68.9622 107.287 68.0568L105.536 69.0224C105.996 69.8563 106.515 70.9547 106.925 71.8598C107.128 72.3092 107.302 72.705 107.425 72.9884C107.487 73.13 107.536 73.2433 107.569 73.3209C107.585 73.3597 107.598 73.3896 107.607 73.4096C107.611 73.4196 107.614 73.4271 107.616 73.4321C107.617 73.4345 107.618 73.4364 107.618 73.4375C107.619 73.4381 107.619 73.4387 107.619 73.439C107.619 73.439 107.619 73.439 108.54 73.0501ZM103.523 56.468C105.914 60.9832 106.917 65.1287 107.324 68.1371C107.527 69.6412 107.581 70.8593 107.585 71.6948C107.587 72.1124 107.576 72.434 107.565 72.6475C107.56 72.7542 107.555 72.8339 107.551 72.8849C107.549 72.9104 107.547 72.9288 107.546 72.9398C107.546 72.9454 107.545 72.949 107.545 72.9509C107.545 72.9518 107.545 72.9522 107.545 72.9522C107.545 72.9523 107.545 72.9521 107.545 72.9522C107.545 72.9519 107.545 72.9507 108.54 73.0501C109.535 73.1495 109.535 73.1499 109.535 73.1495C109.535 73.1493 109.536 73.1481 109.536 73.1477C109.536 73.147 109.536 73.1462 109.536 73.1452C109.536 73.1433 109.536 73.1409 109.537 73.138C109.537 73.1323 109.538 73.1247 109.539 73.1152C109.54 73.0963 109.542 73.0698 109.545 73.0362C109.55 72.9688 109.557 72.8723 109.563 72.7483C109.575 72.5004 109.587 72.1421 109.585 71.6858C109.581 70.7736 109.522 69.4683 109.306 67.8691C108.874 64.6712 107.81 60.2917 105.291 55.5322L103.523 56.468ZM89.7202 42.2329C95.2842 45.7888 99.9882 49.7905 103.523 56.468L105.291 55.5322C101.538 48.4427 96.5302 44.2114 90.7972 40.5476L89.7202 42.2329ZM93.5972 63.2119C92.1742 58.5014 89.0852 53.0924 86.3972 48.9105C85.0462 46.8081 83.7832 44.9947 82.8572 43.7064C82.3932 43.062 82.0142 42.5484 81.7502 42.1951C81.6182 42.0185 81.5152 41.8818 81.4452 41.7889C81.4092 41.7425 81.3822 41.7069 81.3642 41.6828C81.3542 41.6707 81.3472 41.6615 81.3422 41.6552C81.3402 41.652 81.3382 41.6496 81.3372 41.6479C81.3362 41.647 81.3362 41.6455 81.3352 41.645C81.3352 41.6451 81.3352 41.6447 81.3352 41.645C81.3352 41.6448 81.3352 41.645 80.5432 42.2557C79.7512 42.8663 79.7512 42.8663 79.7512 42.8663C79.7512 42.8666 79.7522 42.8672 79.7522 42.8678C79.7532 42.8691 79.7552 42.871 79.7572 42.8737C79.7612 42.8791 79.7672 42.8874 79.7762 42.8985C79.7932 42.9207 79.8182 42.9543 79.8522 42.9987C79.9192 43.0876 80.0202 43.22 80.1482 43.3922C80.4062 43.7367 80.7772 44.2403 81.2332 44.8737C82.1432 46.1409 83.3862 47.9251 84.7152 49.9917C87.3852 54.1476 90.3452 59.3614 91.6832 63.7904L93.5972 63.2119ZM95.9102 82.3809C96.5892 76.6101 95.7572 70.3597 93.5972 63.2119L91.6832 63.7904C93.7932 70.7738 94.5602 76.7357 93.9242 82.1472L95.9102 82.3809ZM81.5402 99.9546C83.7932 98.2376 87.1752 95.3405 90.0842 92.1696C91.5392 90.584 92.8932 88.9111 93.9302 87.2674C94.9582 85.6382 95.7242 83.9618 95.9102 82.3809L93.9242 82.1472C93.7882 83.2979 93.2002 84.677 92.2392 86.2C91.2872 87.7085 90.0172 89.2846 88.6102 90.8176C85.7972 93.8839 82.5082 96.7026 80.3282 98.3631L81.5402 99.9546ZM72.3362 105.38C72.8792 106.22 72.8792 106.221 72.8792 106.22C72.8792 106.22 72.8792 106.219 72.8802 106.219C72.8802 106.219 72.8812 106.218 72.8822 106.218C72.8842 106.216 72.8862 106.215 72.8892 106.213C72.8952 106.209 72.9042 106.203 72.9162 106.195C72.9402 106.18 72.9752 106.157 73.0202 106.127C73.1122 106.066 73.2482 105.975 73.4292 105.853C73.7912 105.609 74.3312 105.239 75.0512 104.732C76.4912 103.718 78.6502 102.156 81.5402 99.9546L80.3282 98.3631C77.4572 100.55 75.3182 102.098 73.8992 103.097C73.1902 103.597 72.6602 103.959 72.3102 104.196C72.1352 104.314 72.0042 104.401 71.9182 104.458C71.8752 104.486 71.8432 104.507 71.8222 104.521C71.8122 104.528 71.8042 104.532 71.8002 104.536C71.7972 104.537 71.7952 104.538 71.7942 104.539C71.7942 104.539 71.7942 104.539 71.7932 104.54C71.7932 104.54 71.7932 104.54 72.3362 105.38ZM84.7082 84.3001C83.2142 89.9788 79.9702 95.06 77.0632 98.7468C75.6142 100.585 74.2602 102.062 73.2702 103.077C72.7752 103.585 72.3722 103.977 72.0952 104.24C71.9562 104.372 71.8482 104.471 71.7772 104.537C71.7412 104.57 71.7142 104.594 71.6962 104.61C71.6872 104.618 71.6812 104.624 71.6772 104.627C71.6752 104.629 71.6742 104.63 71.6732 104.631L71.6722 104.632C71.6722 104.632 71.6732 104.631 72.3362 105.38C73.0002 106.128 73.0002 106.128 73.0002 106.127C73.0002 106.126 73.0022 106.126 73.0032 106.125C73.0052 106.123 73.0072 106.121 73.0102 106.119C73.0162 106.113 73.0242 106.106 73.0352 106.096C73.0562 106.077 73.0872 106.049 73.1272 106.012C73.2072 105.939 73.3232 105.832 73.4712 105.692C73.7662 105.412 74.1882 105.001 74.7032 104.473C75.7312 103.418 77.1332 101.888 78.6342 99.9856C81.6242 96.1924 85.0502 90.8613 86.6422 84.8089L84.7082 84.3001ZM86.7732 67.4504C86.8952 74.0886 86.4002 77.8686 84.7082 84.3001L86.6422 84.8089C88.3782 78.2101 88.8992 74.2466 88.7732 67.4135L86.7732 67.4504ZM85.2902 55.185C86.5462 59.8169 86.6832 62.5607 86.7732 67.4504L88.7732 67.4135C88.6822 62.4634 88.5402 59.5284 87.2202 54.6617L85.2902 55.185ZM80.5432 42.2557C79.6772 42.7559 79.6772 42.7559 79.6772 42.7559C79.6782 42.7566 79.6782 42.7586 79.6792 42.7602C79.6812 42.7634 79.6842 42.7684 79.6882 42.7751C79.6962 42.7886 79.7072 42.809 79.7232 42.836C79.7542 42.8901 79.8002 42.9708 79.8592 43.0757C79.9772 43.2856 80.1482 43.5924 80.3582 43.9773C80.7782 44.7474 81.3532 45.8285 81.9712 47.071C83.2172 49.5728 84.6072 52.6664 85.2902 55.185L87.2202 54.6617C86.4832 51.9426 85.0172 48.7023 83.7622 46.1797C83.1302 44.91 82.5432 43.8062 82.1142 43.0196C81.8992 42.626 81.7232 42.3114 81.6012 42.0945C81.5402 41.9861 81.4932 41.902 81.4602 41.8447C81.4432 41.8161 81.4312 41.7941 81.4222 41.7791C81.4182 41.7716 81.4152 41.7659 81.4122 41.7619C81.4112 41.7599 81.4102 41.7584 81.4102 41.7573C81.4092 41.7568 81.4092 41.7563 81.4092 41.756C81.4092 41.7561 81.4092 41.7559 81.4092 41.756C81.4092 41.7559 81.4092 41.7554 80.5432 42.2557ZM64.8962 24.4727C64.8112 25.4691 64.8112 25.4691 64.8112 25.4691C64.8112 25.4692 64.8112 25.4692 64.8122 25.4692C64.8122 25.4693 64.8142 25.4694 64.8152 25.4695C64.8182 25.4698 64.8232 25.4702 64.8302 25.4708C64.8422 25.4718 64.8612 25.4735 64.8862 25.4756C64.9362 25.4799 65.0102 25.4862 65.1052 25.4945C65.2962 25.5109 65.5722 25.5349 65.9152 25.565C66.6022 25.6252 67.5572 25.7098 68.6292 25.8074C70.7752 26.0028 73.3832 26.2496 75.2492 26.457L75.4702 24.4692C73.5822 24.2594 70.9572 24.0111 68.8102 23.8156C67.7362 23.7178 66.7782 23.633 66.0902 23.5726C65.7462 23.5425 65.4692 23.5184 65.2772 23.5019C65.1822 23.4936 65.1082 23.4873 65.0572 23.483C65.0322 23.4808 65.0132 23.4792 65.0002 23.4781C64.9942 23.4775 64.9892 23.4771 64.9862 23.4768C64.9842 23.4767 64.9832 23.4766 64.9822 23.4765L64.9812 23.4764C64.9812 23.4764 64.9812 23.4764 64.8962 24.4727ZM73.7392 27.013C72.7312 26.4925 70.5832 25.6158 68.7402 24.8877C67.8072 24.5191 66.9352 24.1816 66.2962 23.9364C65.9762 23.8137 65.7152 23.714 65.5332 23.6449C65.4422 23.6104 65.3712 23.5835 65.3232 23.5652C65.2992 23.5561 65.2802 23.5491 65.2682 23.5444C65.2622 23.542 65.2572 23.5402 65.2542 23.539C65.2522 23.5384 65.2512 23.5379 65.2502 23.5376C65.2502 23.5375 65.2492 23.5373 65.2492 23.5373C65.2492 23.5372 65.2492 23.5371 64.8962 24.4727C64.5432 25.4084 64.5432 25.4084 64.5432 25.4084C64.5432 25.4084 64.5432 25.4086 64.5442 25.4088C64.5442 25.409 64.5462 25.4095 64.5472 25.41C64.5502 25.4112 64.5552 25.4129 64.5612 25.4152C64.5732 25.4198 64.5912 25.4266 64.6152 25.4356C64.6622 25.4536 64.7322 25.4802 64.8222 25.5144C65.0022 25.5828 65.2622 25.6818 65.5792 25.8036C66.2142 26.0473 67.0802 26.3823 68.0052 26.7478C69.8782 27.4878 71.9222 28.3255 72.8212 28.7901L73.7392 27.013ZM81.5872 31.3449C79.8942 30.3293 75.7402 28.0463 73.7392 27.013L72.8212 28.7901C74.7972 29.8102 78.9122 32.0723 80.5582 33.0599L81.5872 31.3449ZM85.5622 33.7374C84.2082 32.9215 82.8532 32.1044 81.5872 31.3449L80.5582 33.0599C81.8222 33.8181 83.1762 34.6342 84.5302 35.4503L85.5622 33.7374ZM85.5682 33.741L85.5632 33.7377L84.5292 35.45L84.5342 35.453L85.5682 33.741ZM85.5752 33.745L85.5682 33.741L84.5342 35.453L84.5402 35.4568L85.5752 33.745ZM89.4372 36.0701C88.2072 35.3317 86.8922 34.5388 85.5742 33.7444L84.5412 35.4573C85.8592 36.2515 87.1762 37.0455 88.4082 37.7849L89.4372 36.0701ZM105.781 48.9016C106.379 48.1 106.378 48.0999 106.378 48.0998C106.377 48.0995 106.377 48.0988 106.376 48.0982C106.375 48.097 106.372 48.0952 106.369 48.0929C106.363 48.0883 106.354 48.0814 106.341 48.0723C106.317 48.0542 106.281 48.0272 106.234 47.992C106.139 47.9216 106 47.8181 105.821 47.6855C105.464 47.4203 104.95 47.0388 104.319 46.5734C103.059 45.6427 101.335 44.3757 99.4822 43.0312C95.7942 40.3551 91.5402 37.3321 89.4372 36.0701L88.4082 37.7849C90.4202 38.9923 94.5952 41.9563 98.3072 44.6499C100.155 45.9902 101.874 47.2538 103.131 48.1823C103.76 48.6465 104.273 49.0269 104.629 49.2912C104.807 49.4233 104.945 49.5264 105.039 49.5964C105.086 49.6314 105.122 49.6581 105.146 49.6761C105.159 49.6851 105.168 49.6919 105.174 49.6964C105.177 49.6987 105.179 49.7004 105.181 49.7015C105.181 49.702 105.182 49.7025 105.182 49.7027C105.182 49.7029 105.183 49.7031 105.183 49.7031C105.183 49.7032 105.183 49.7031 105.781 48.9016ZM94.0122 36.4168C95.2202 37.6239 97.9492 40.8761 100.415 43.8779C101.639 45.368 102.786 46.7804 103.626 47.8205C104.046 48.3404 104.39 48.7672 104.629 49.0638C104.748 49.2122 104.841 49.328 104.904 49.4066C104.935 49.446 104.96 49.476 104.976 49.4962C104.984 49.5063 104.99 49.5139 104.994 49.519C104.996 49.5215 104.998 49.5235 104.999 49.5247C104.999 49.5254 104.999 49.5258 105 49.5261C105 49.526 105 49.5263 105 49.5261C105 49.5262 105 49.5266 105.781 48.9016C106.561 48.2765 106.561 48.2766 106.561 48.2765C106.561 48.2767 106.561 48.2764 106.561 48.2765C106.561 48.2762 106.56 48.2751 106.56 48.2745C106.559 48.2732 106.557 48.2712 106.555 48.2686C106.551 48.2634 106.544 48.2556 106.536 48.2454C106.52 48.225 106.496 48.1947 106.464 48.1551C106.4 48.0759 106.307 47.9596 106.187 47.8107C105.948 47.5129 105.603 47.0848 105.182 46.5633C104.339 45.5205 103.189 44.1037 101.96 42.6083C99.5212 39.6392 96.7202 36.2955 95.4272 35.0026L94.0122 36.4168ZM93.0482 35.4342C93.3812 35.7767 93.7042 36.1088 94.0122 36.4168L95.4272 35.0026C95.1302 34.7061 94.8172 34.3843 94.4822 34.0395L93.0482 35.4342ZM85.6972 29.4593C88.6972 30.9739 91.0872 33.4187 93.0482 35.4342L94.4822 34.0395C92.5512 32.0548 89.9422 29.3619 86.5992 27.6739L85.6972 29.4593ZM75.2492 26.457C76.2802 26.5715 78.2202 26.979 80.2732 27.5427C82.3282 28.1073 84.3932 28.8007 85.6972 29.4593L86.5992 27.6739C85.1102 26.9225 82.8892 26.1873 80.8022 25.6142C78.7132 25.0402 76.6552 24.6009 75.4702 24.4692L75.2492 26.457ZM58.6022 24.9298L43.8468 30.5668L44.5606 32.4351L59.3162 26.7981L58.6022 24.9298ZM78.2462 42.9556C75.3822 38.5446 70.6782 34.0586 66.7462 30.7079C64.7702 29.0241 62.9712 27.611 61.6652 26.6185C61.0112 26.122 60.4812 25.7304 60.1132 25.4621C59.9292 25.328 59.7852 25.2247 59.6872 25.1546C59.6382 25.1196 59.6012 25.0928 59.5752 25.0746C59.5622 25.0655 59.5522 25.0586 59.5462 25.0538C59.5422 25.0514 59.5402 25.0496 59.5382 25.0483C59.5372 25.0477 59.5362 25.0472 59.5362 25.0468C59.5352 25.0466 59.5352 25.0462 59.5352 25.0461C59.5352 25.0459 59.5352 25.0461 58.9592 25.8639C58.3842 26.6817 58.3842 26.6817 58.3842 26.6817C58.3842 26.6818 58.3852 26.6824 58.3852 26.6828C58.3872 26.6837 58.3892 26.6852 58.3912 26.6872C58.3972 26.6912 58.4062 26.6974 58.4182 26.7058C58.4412 26.7224 58.4772 26.7476 58.5232 26.7811C58.6172 26.848 58.7562 26.9479 58.9352 27.0785C59.2932 27.3396 59.8132 27.7233 60.4542 28.2109C61.7382 29.1864 63.5082 30.5759 65.4492 32.2301C69.3512 35.5555 73.8702 39.8876 76.5682 44.0446L78.2462 42.9556ZM85.9062 66.9551C85.5412 58.8607 83.5872 51.1845 78.2462 42.9556L76.5682 44.0446C81.6932 51.9395 83.5572 59.2617 83.9082 67.0451L85.9062 66.9551ZM81.7382 88.8157C83.2572 85.7799 84.3612 81.7987 85.0532 77.8694C85.7472 73.934 86.0422 69.9748 85.9062 66.9551L83.9082 67.0451C84.0362 69.8875 83.7582 73.6968 83.0842 77.5221C82.4082 81.3535 81.3482 85.1254 79.9502 87.9208L81.7382 88.8157ZM65.2772 103.93C72.8762 100.906 78.7222 94.845 81.7382 88.8157L79.9502 87.9208C77.1312 93.5541 71.6372 99.2456 64.5372 102.071L65.2772 103.93ZM35.6688 105.472C44.6393 107.674 56.6302 107.37 65.2772 103.93L64.5372 102.071C56.3395 105.334 44.7815 105.649 36.1456 103.529L35.6688 105.472ZM14.7211 94.2276C19.1608 98.4147 26.8481 103.307 35.6688 105.472L36.1456 103.529C27.6987 101.456 20.3119 96.7513 16.0933 92.7726L14.7211 94.2276ZM1.97582 75.3651C4.73062 82.3913 10.4242 90.1751 14.7211 94.2276L16.0933 92.7726C11.9884 88.9012 6.47402 81.3588 3.83782 74.6351L1.97582 75.3651ZM-0.587477 51.4529C-1.36508 58.5377 -1.31198 66.9797 1.97582 75.3651L3.83782 74.6351C0.714323 66.6686 0.641226 58.5894 1.40053 51.6711L-0.587477 51.4529ZM6.03972 32.5027C2.49282 38.6894 0.200523 44.2728 -0.587477 51.4529L1.40053 51.6711C2.14933 44.8485 4.31533 39.5317 7.77472 33.4975L6.03972 32.5027ZM11.4072 26.5001C10.7739 25.7262 10.7735 25.7266 10.773 25.7269C10.7729 25.7271 10.7724 25.7274 10.7721 25.7277C10.7715 25.7282 10.7708 25.7287 10.7702 25.7293C10.7688 25.7304 10.7674 25.7316 10.7659 25.7328C10.7629 25.7353 10.7596 25.7381 10.756 25.7412C10.7486 25.7474 10.74 25.7548 10.7301 25.7636C10.7102 25.781 10.6849 25.8038 10.6543 25.8325C10.5931 25.89 10.5103 25.9714 10.4054 26.0822C10.196 26.3037 9.89752 26.6441 9.50772 27.1474C8.72872 28.1533 7.57852 29.8186 6.03972 32.5027L7.77472 33.4975C9.27882 30.874 10.3787 29.2892 11.089 28.372C11.4438 27.9138 11.6997 27.6244 11.8585 27.4565C11.9379 27.3726 11.9926 27.3194 12.023 27.2909C12.0382 27.2766 12.0472 27.2686 12.0501 27.2661C12.0517 27.2648 12.0516 27.2648 12.0501 27.2661C12.0493 27.2668 12.0479 27.2679 12.0463 27.2692C12.0456 27.2699 12.0447 27.2706 12.0437 27.2714C12.0432 27.2718 12.0427 27.2722 12.0422 27.2727C12.0423 27.2726 12.0419 27.2729 12.0422 27.2727C12.0417 27.2731 12.0405 27.274 11.4072 26.5001ZM6.87132 41.2655C7.86662 37.6496 9.22482 34.0667 10.3388 31.3797C10.8949 30.0383 11.3883 28.9247 11.7421 28.1476C11.919 27.7591 12.0609 27.4549 12.1582 27.2486C12.2069 27.1455 12.2443 27.0668 12.2695 27.0144C12.282 26.9881 12.2915 26.9685 12.2978 26.9555C12.3009 26.9491 12.3032 26.9443 12.3047 26.9413C12.3054 26.9397 12.3062 26.9379 12.3066 26.9373C12.3065 26.9374 12.3067 26.9369 12.3066 26.9373C12.3066 26.9373 12.3066 26.9373 11.4072 26.5001C10.5078 26.063 10.5078 26.0631 10.5077 26.0632C10.5078 26.063 10.5077 26.0633 10.5077 26.0632C10.5076 26.0635 10.5071 26.0643 10.5069 26.0649C10.5064 26.066 10.5056 26.0675 10.5047 26.0694C10.5028 26.0733 10.5001 26.0789 10.4966 26.0862C10.4895 26.1008 10.4792 26.1222 10.4658 26.1502C10.439 26.2062 10.3997 26.2885 10.3493 26.3954C10.2485 26.6092 10.1028 26.9216 9.92193 27.3189C9.56023 28.1132 9.05752 29.248 8.49132 30.6138C7.36052 33.3412 5.96872 37.0084 4.94312 40.7347L6.87132 41.2655ZM8.83013 67.6151C6.59243 62.2505 4.23342 50.8496 6.87132 41.2655L4.94312 40.7347C2.15152 50.877 4.63362 62.7497 6.98432 68.3851L8.83013 67.6151ZM14.8581 78.4206C15.6127 77.7644 15.6128 77.7645 15.6128 77.7645C15.613 77.7647 15.6128 77.7644 15.6128 77.7645C15.6124 77.764 15.6112 77.7627 15.6102 77.7615C15.6081 77.7591 15.6049 77.7554 15.6005 77.7503C15.5917 77.7401 15.5783 77.7245 15.5605 77.7038C15.5249 77.6623 15.4718 77.6001 15.4031 77.5189C15.2658 77.3563 15.0664 77.1177 14.8206 76.8164C14.3286 76.2134 13.6524 75.361 12.9167 74.3656C11.4328 72.358 9.75493 69.8322 8.83013 67.6151L6.98432 68.3851C8.00572 70.8338 9.80332 73.5182 11.3083 75.5544C12.0671 76.5809 12.7636 77.4589 13.2709 78.0807C13.5246 78.3918 13.7314 78.6392 13.8754 78.8096C13.9474 78.8948 14.0038 78.9608 14.0424 79.0059C14.0618 79.0285 14.0767 79.0458 14.087 79.0577C14.0921 79.0636 14.0961 79.0682 14.0988 79.0714C14.1002 79.073 14.1013 79.0743 14.1021 79.0752C14.1025 79.0756 14.1032 79.0766 14.1035 79.0769C14.1034 79.0769 14.1036 79.077 14.1035 79.0769C14.1036 79.0771 14.1036 79.0769 14.8581 78.4206ZM27.1888 87.4705C24.5977 86.1996 21.7155 83.8006 19.4386 81.6606C18.3106 80.6003 17.3501 79.6219 16.672 78.9089C16.3332 78.5526 16.0654 78.2631 15.8831 78.0636C15.7919 77.9638 15.7222 77.8866 15.6756 77.8347C15.6523 77.8088 15.6348 77.7892 15.6234 77.7763C15.6177 77.7699 15.6129 77.7646 15.6102 77.7615C15.6089 77.76 15.6084 77.7595 15.6079 77.7589C15.608 77.7589 15.6073 77.7583 14.8581 78.4206C14.1089 79.083 14.1087 79.0828 14.1089 79.083C14.1087 79.0828 14.109 79.083 14.1089 79.083C14.1092 79.0833 14.1102 79.0845 14.1107 79.085C14.1117 79.0861 14.1131 79.0877 14.1149 79.0897C14.1184 79.0937 14.1235 79.0994 14.1301 79.1068C14.1433 79.1216 14.1625 79.1431 14.1876 79.1711C14.2378 79.227 14.3115 79.3085 14.4066 79.4127C14.597 79.621 14.8739 79.9202 15.2228 80.2871C15.9201 81.0204 16.9075 82.0263 18.0688 83.1179C20.3707 85.2814 23.4337 87.8563 26.3081 89.2661L27.1888 87.4705ZM42.6509 91.3474C36.7788 91.4289 32.5535 90.1016 27.1888 87.4705L26.3081 89.2661C31.8561 91.9872 36.3974 93.4344 42.6786 93.3472L42.6509 91.3474ZM61.0762 84.0473C56.8802 87.9041 50.4024 91.2399 42.6509 91.3474L42.6786 93.3472C50.9911 93.2319 57.9262 89.6593 62.4292 85.5198L61.0762 84.0473ZM69.4012 71.3156C67.6092 76.8609 65.3942 80.0774 61.0762 84.0473L62.4292 85.5198C66.9732 81.343 69.3942 77.84 71.3042 71.9306L69.4012 71.3156ZM69.4102 51.898C71.7852 58.554 71.2012 65.7451 69.4012 71.3156L71.3042 71.9306C73.2052 66.0464 73.8502 58.3908 71.2942 51.226L69.4102 51.898ZM60.2742 38.4132C65.1442 42.3473 67.2762 45.9146 69.4102 51.898L71.2942 51.226C69.0682 44.9873 66.7542 41.0769 61.5302 36.8574L60.2742 38.4132ZM44.2037 31.5009C44.036 32.4867 44.0361 32.4867 44.036 32.4867C44.0362 32.4868 44.0365 32.4868 44.037 32.4869C44.038 32.4871 44.0398 32.4874 44.0422 32.4878C44.047 32.4886 44.0546 32.49 44.0648 32.4917C44.0853 32.4953 44.1165 32.5008 44.1578 32.5082C44.2404 32.5231 44.3635 32.5456 44.5228 32.5758C44.8414 32.6363 45.3043 32.7277 45.8768 32.8505C47.0226 33.0962 48.6028 33.4665 50.3402 33.9648C53.859 34.974 57.8602 36.4642 60.2742 38.4132L61.5302 36.8574C58.7782 34.6343 54.4305 33.0573 50.8915 32.0423C49.1 31.5285 47.4741 31.1475 46.2961 30.8949C45.7066 30.7685 45.2282 30.674 44.8959 30.6109C44.7297 30.5794 44.6 30.5557 44.5112 30.5397C44.4667 30.5317 44.4325 30.5257 44.409 30.5216C44.3973 30.5195 44.3883 30.518 44.382 30.5169C44.3788 30.5164 44.3764 30.5159 44.3746 30.5156C44.3737 30.5155 44.373 30.5154 44.3725 30.5153C44.3727 30.5153 44.3722 30.5152 44.3725 30.5153C44.3723 30.5152 44.3714 30.5151 44.2037 31.5009Z" fill="url(#paint1_linear_2311_29)"/>
</g>
<path fill-rule="evenodd" clip-rule="evenodd" d="M51.0801 44.6038C51.0801 45.934 50.2556 47.0716 49.0898 47.5335V60.3542L59.8832 63.1697C60.1972 62.4864 60.8882 62.0122 61.6902 62.0122C62.7892 62.0122 63.6802 62.9029 63.6802 64.0017C63.6802 65.1005 62.7892 65.9912 61.6902 65.9912C60.6752 65.9912 59.8372 65.23 59.7162 64.2469L49.0898 62.3437H46.7687L36.4856 64.1321C36.4184 65.1701 35.5552 65.9912 34.5002 65.9912C33.4015 65.9912 32.5107 65.1005 32.5107 64.0017C32.5107 62.9029 33.4015 62.0122 34.5002 62.0122C35.2716 62.0122 35.9404 62.4511 36.2705 63.0928L46.7687 60.3542V47.5329C45.6037 47.0706 44.7799 45.9334 44.7799 44.6038C44.7799 42.864 46.1902 41.4537 47.93 41.4537C49.6697 41.4537 51.0801 42.864 51.0801 44.6038ZM47.9302 46.0959C48.7543 46.0959 49.4224 45.4279 49.4224 44.6038C49.4224 43.7797 48.7543 43.1116 47.9302 43.1116C47.1061 43.1116 46.4381 43.7797 46.4381 44.6038C46.4381 45.4279 47.1061 46.0959 47.9302 46.0959ZM48.2261 63.3031L44.8351 65.6469V105.778C44.8351 105.778 45.9613 105.864 46.5937 105.885C47.2167 105.906 48.1967 105.886 48.2254 105.885C48.2254 105.885 48.6382 105.904 49.7942 105.841C50.6148 105.796 51.3561 105.769 51.3561 105.769V65.409L48.2261 63.3031Z" fill="white"/>
<path d="M48.348 63.058L47.6693 62.8499L47.6699 105.898H48.3486L48.348 63.058Z" fill="#02294D"/>
<path d="M141.953 78.6595H135.407V44.331H141.953V78.6595ZM160.985 55.9413C160.985 58.5661 160.464 60.8041 159.424 62.6554C158.383 64.5067 157.007 65.9028 155.295 66.8452C153.617 67.7876 151.804 68.2596 149.857 68.2596C147.877 68.2596 146.148 67.7541 144.671 66.7447C143.228 65.7353 142.104 64.3042 141.298 62.4544C140.526 60.6031 140.14 58.4321 140.14 55.9413C140.14 53.4171 140.526 51.2461 141.298 49.4298C142.104 47.5784 143.228 46.1473 144.671 45.1379C146.148 44.1285 147.877 43.6231 149.857 43.6231C151.804 43.6231 153.617 44.095 155.295 45.0374C157.007 45.9798 158.383 47.3759 159.424 49.2273C160.464 51.0451 160.985 53.2831 160.985 55.9413ZM154.238 55.9413C154.238 54.562 153.952 53.3836 153.382 52.4077C152.811 51.4318 152.039 50.6919 151.066 50.1864C150.126 49.681 149.085 49.4298 147.944 49.4298C146.971 49.4298 146.014 49.681 145.074 50.1864C144.168 50.6569 143.413 51.3815 142.809 52.3574C142.238 53.3333 141.953 54.5285 141.953 55.9413C141.953 57.3557 142.238 58.5493 142.809 59.5252C143.413 60.5011 144.168 61.2426 145.074 61.7465C146.014 62.2185 146.971 62.4544 147.944 62.4544C149.085 62.4544 150.126 62.2017 151.066 61.6962C152.039 61.1923 152.811 60.4509 153.382 59.475C153.952 58.4991 154.238 57.3207 154.238 55.9413ZM165.544 35.3439C165.544 34.2675 165.93 33.3921 166.702 32.7192C167.474 32.0128 168.397 31.6595 169.471 31.6595C170.546 31.6595 171.452 32.0128 172.19 32.7192C172.962 33.3921 173.348 34.2675 173.348 35.3439C173.348 36.3883 172.962 37.2622 172.19 37.9702C171.452 38.6766 170.546 39.0298 169.471 39.0298C168.397 39.0298 167.474 38.6766 166.702 37.9702C165.93 37.2622 165.544 36.3883 165.544 35.3439ZM166.249 44.331H172.593V67.5532H166.249V44.331ZM190.441 68.0571C187.924 68.0571 185.725 67.5532 183.845 66.5423C181.966 65.5329 180.505 64.1368 179.465 62.3524C178.458 60.5361 177.954 58.3986 177.954 55.9413C177.954 53.4506 178.458 51.3146 179.465 49.5302C180.505 47.7124 181.966 46.3163 183.845 45.3404C185.725 44.331 187.94 43.8256 190.491 43.8256C193.042 43.8256 195.207 44.296 196.986 45.2384C198.799 46.1473 200.175 47.4932 201.115 49.2775C202.055 51.0283 202.525 53.1476 202.525 55.6384C202.525 55.9413 202.508 56.261 202.474 56.5975C202.474 56.934 202.458 57.2035 202.424 57.406H181.68V53.3669H196.735L194.972 55.6886C195.107 55.4876 195.224 55.2182 195.325 54.8817C195.459 54.5117 195.526 54.2088 195.526 53.9728C195.526 52.8279 195.308 51.852 194.872 51.0451C194.469 50.2367 193.882 49.5972 193.109 49.1268C192.337 48.6548 191.431 48.4188 190.391 48.4188C189.115 48.4188 188.041 48.7051 187.168 49.2775C186.329 49.8165 185.675 50.6401 185.205 51.7515C184.768 52.8279 184.533 54.1753 184.5 55.7906C184.5 57.3374 184.718 58.6513 185.154 59.7277C185.624 60.8041 186.312 61.6293 187.219 62.2017C188.125 62.7742 189.216 63.0589 190.491 63.0589C191.935 63.0589 193.16 62.7909 194.167 62.252C195.207 61.6795 196.063 60.8376 196.735 59.7277L202.424 61.4953C201.216 63.6815 199.604 65.3319 197.591 66.4418C195.61 67.5182 193.227 68.0571 190.441 68.0571ZM217.077 50.2869H206.202V44.331H228.054L215.617 61.5958H226.594V67.5532H204.239L217.077 50.2869ZM229.729 55.9413C229.729 53.5176 230.283 51.3983 231.391 49.5805C232.532 47.7626 234.059 46.3498 235.973 45.3404C237.919 44.331 240.118 43.8256 242.568 43.8256C245.019 43.8256 247.2 44.331 249.114 45.3404C251.06 46.3498 252.588 47.7626 253.695 49.5805C254.837 51.3983 255.407 53.5176 255.407 55.9413C255.407 58.3316 254.837 60.4509 253.695 62.3022C252.588 64.12 251.06 65.5329 249.114 66.5423C247.2 67.5532 245.019 68.0571 242.568 68.0571C240.118 68.0571 237.919 67.5532 235.973 66.5423C234.059 65.5329 232.532 64.12 231.391 62.3022C230.283 60.4509 229.729 58.3316 229.729 55.9413ZM236.375 55.9413C236.375 57.2537 236.644 58.4153 237.181 59.4247C237.752 60.4006 238.507 61.1756 239.447 61.7465C240.386 62.2854 241.427 62.5549 242.568 62.5549C243.709 62.5549 244.75 62.2854 245.69 61.7465C246.63 61.1756 247.368 60.4006 247.905 59.4247C248.476 58.4153 248.761 57.2537 248.761 55.9413C248.761 54.629 248.476 53.4673 247.905 52.4579C247.368 51.4485 246.63 50.6736 245.69 50.1362C244.75 49.5972 243.709 49.3277 242.568 49.3277C241.427 49.3277 240.386 49.5972 239.447 50.1362C238.507 50.6736 237.752 51.4485 237.181 52.4579C236.644 53.4673 236.375 54.629 236.375 55.9413Z" fill="#F22C2A"/>
<path d="M294.874 52.8824V67.8461H288.285V53.5946C288.285 51.9999 288.015 50.8119 287.474 50.0321C286.934 49.2171 286.055 48.8104 284.838 48.8104C284.027 48.8104 283.318 48.9976 282.709 49.3706C282.101 49.7098 281.628 50.2532 281.29 50.9991C280.952 51.7113 280.783 52.577 280.783 53.5946V67.8461H274.245V53.5946C274.245 51.9999 273.974 50.8119 273.434 50.0321C272.893 49.2171 272.015 48.8104 270.798 48.8104C269.987 48.8104 269.277 48.9976 268.669 49.3706C268.061 49.7098 267.588 50.2532 267.25 50.9991C266.912 51.7113 266.743 52.577 266.743 53.5946V67.8461H260.407V44.4344H266.743V47.894C267.419 46.6047 268.314 45.6209 269.43 44.9425C270.545 44.264 271.879 43.9248 273.434 43.9248C275.157 43.9248 276.576 44.264 277.691 44.9425C278.807 45.6209 279.618 46.6216 280.124 47.9447C280.969 46.6216 282 45.6209 283.216 44.9425C284.467 44.264 285.885 43.9248 287.474 43.9248C289.198 43.9248 290.6 44.2809 291.68 44.9931C292.763 45.6715 293.556 46.6907 294.063 48.0475C294.605 49.3706 294.874 50.9823 294.874 52.8824ZM312.342 68.3541C309.808 68.3541 307.595 67.8461 305.702 66.8269C303.81 65.8093 302.339 64.4018 301.292 62.6029C300.279 60.7718 299.771 58.6168 299.771 56.1395C299.771 53.6284 300.279 51.4749 301.292 49.6761C302.339 47.8434 303.81 46.4359 305.702 45.452C307.595 44.4344 309.825 43.9248 312.393 43.9248C314.961 43.9248 317.141 44.3991 318.931 45.3492C320.756 46.2655 322.141 47.6224 323.087 49.4213C324.033 51.1864 324.507 53.3229 324.507 55.834C324.507 56.1395 324.49 56.4618 324.455 56.801C324.455 57.1402 324.438 57.4119 324.405 57.616H303.522V53.544H318.677L316.904 55.8847C317.038 55.6821 317.158 55.4104 317.258 55.0712C317.393 54.6982 317.462 54.3928 317.462 54.1549C317.462 53.0006 317.242 52.0168 316.801 51.2033C316.396 50.3882 315.805 49.7436 315.028 49.2693C314.25 48.7935 313.339 48.5556 312.291 48.5556C311.007 48.5556 309.926 48.8441 309.047 49.4213C308.203 49.9646 307.543 50.795 307.07 51.9155C306.632 53.0006 306.395 54.359 306.361 55.9875C306.361 57.547 306.58 58.8716 307.02 59.9567C307.492 61.0419 308.185 61.8738 309.097 62.4509C310.01 63.028 311.109 63.3151 312.393 63.3151C313.845 63.3151 315.079 63.0449 316.092 62.5016C317.141 61.9245 318.001 61.0757 318.677 59.9567L324.405 61.7387C323.188 63.9428 321.566 65.6067 319.539 66.7256C317.546 67.8108 315.146 68.3541 312.342 68.3541ZM326.467 44.4344H340.863V49.9815H326.467V44.4344ZM330.472 36.2903H336.808V67.8461H330.472V36.2903ZM350.795 44.4344V67.8461H344.358V44.4344H350.795ZM357.637 51.3046C357.198 50.8978 356.742 50.5924 356.268 50.3882C355.83 50.1503 355.272 50.0321 354.596 50.0321C353.784 50.0321 353.092 50.2532 352.517 50.6937C351.943 51.1342 351.504 51.762 351.2 52.577C350.929 53.3567 350.795 54.3068 350.795 55.4273L348.969 53.5946C348.969 51.7282 349.324 50.0828 350.033 48.6584C350.744 47.1987 351.674 46.046 352.821 45.1973C353.971 44.3147 355.154 43.8742 356.369 43.8742C357.215 43.8742 358.008 44.0261 358.752 44.3316C359.529 44.637 360.154 45.096 360.628 45.7068L357.637 51.3046ZM363.803 35.374C363.803 34.2888 364.191 33.4062 364.969 32.7278C365.746 32.0156 366.675 31.6595 367.756 31.6595C368.838 31.6595 369.751 32.0156 370.494 32.7278C371.27 33.4062 371.66 34.2888 371.66 35.374C371.66 36.4269 371.27 37.3079 370.494 38.0217C369.751 38.7338 368.838 39.0899 367.756 39.0899C366.675 39.0899 365.746 38.7338 364.969 38.0217C364.191 37.3079 363.803 36.4269 363.803 35.374ZM364.512 44.4344H370.899V67.8461H364.512V44.4344ZM382.836 56.1395C382.836 57.4963 383.14 58.6843 383.747 59.7019C384.355 60.7196 385.167 61.5177 386.18 62.0948C387.227 62.6704 388.377 62.959 389.627 62.959C390.641 62.959 391.621 62.807 392.567 62.5016C393.513 62.1624 394.358 61.7203 395.101 61.1785C395.879 60.6014 396.469 59.9399 396.876 59.1939V65.9627C396.064 66.7087 395 67.3027 393.683 67.7432C392.399 68.1515 390.894 68.3541 389.17 68.3541C386.705 68.3541 384.474 67.8461 382.481 66.8269C380.52 65.8093 378.967 64.3849 377.817 62.5522C376.701 60.6858 376.145 58.5492 376.145 56.1395C376.145 53.6959 376.701 51.5594 377.817 49.7267C378.967 47.894 380.52 46.4697 382.481 45.452C384.474 44.4344 386.705 43.9248 389.17 43.9248C390.894 43.9248 392.399 44.1459 393.683 44.5864C395 44.9931 396.064 45.5533 396.876 46.2655V53.0344C396.469 52.2884 395.861 51.6438 395.051 51.1004C394.273 50.5249 393.412 50.0828 392.466 49.7774C391.52 49.4719 390.573 49.32 389.627 49.32C388.377 49.32 387.227 49.6254 386.18 50.2363C385.167 50.8119 384.355 51.61 383.747 52.6276C383.14 53.6453 382.836 54.8164 382.836 56.1395ZM403.833 59.7526C404.812 60.6689 405.725 61.4164 406.57 61.992C407.414 62.5354 408.209 62.9421 408.952 63.2138C409.728 63.4854 410.456 63.6205 411.132 63.6205C412.011 63.6205 412.686 63.4348 413.159 63.0618C413.632 62.6535 413.868 62.1117 413.868 61.4333C413.868 60.8224 413.666 60.3128 413.259 59.9061C412.888 59.464 412.332 59.0742 411.587 58.735C410.844 58.3957 409.898 58.0397 408.749 57.6667C407.668 57.2599 406.621 56.7841 405.607 56.2408C404.592 55.6652 403.748 54.9177 403.073 54.0014C402.431 53.0513 402.11 51.8479 402.11 50.3882C402.11 48.9976 402.481 47.8265 403.224 46.8764C403.967 45.8926 404.964 45.1635 406.214 44.6877C407.498 44.1796 408.918 43.9248 410.473 43.9248C411.79 43.9248 413.024 44.0937 414.172 44.4344C415.322 44.7736 416.385 45.231 417.365 45.8081C418.345 46.3515 419.207 46.9961 419.95 47.7421L417.061 51.8142C416.217 50.8978 415.204 50.1503 414.021 49.5748C412.871 48.9976 411.74 48.7091 410.624 48.7091C409.881 48.7091 409.29 48.861 408.851 49.1665C408.444 49.4381 408.243 49.8618 408.243 50.4389C408.243 50.9485 408.444 51.4059 408.851 51.8142C409.29 52.1871 409.898 52.5263 410.675 52.8318C411.486 53.1372 412.399 53.5102 413.412 53.9507C414.663 54.4265 415.811 54.9683 416.859 55.5792C417.94 56.1563 418.802 56.8854 419.444 57.768C420.086 58.6506 420.407 59.8032 420.407 61.2291C420.407 63.5699 419.648 65.4025 418.127 66.7256C416.606 68.0149 414.51 68.6595 411.841 68.6595C410.185 68.6595 408.664 68.4385 407.28 67.998C405.928 67.5575 404.695 66.9804 403.579 66.2682C402.498 65.5207 401.518 64.7241 400.639 63.8753L403.833 59.7526Z" fill="white"/>
<defs>
<linearGradient id="paint0_linear_2311_29" x1="102.045" y1="44.9302" x2="8.37722" y2="27.3527" gradientUnits="userSpaceOnUse">
<stop offset="0.3934" stop-color="#ED3128"/>
<stop offset="0.918272" stop-color="#FCC96F"/>
</linearGradient>
<linearGradient id="paint1_linear_2311_29" x1="111.877" y1="67.0001" x2="4.67562" y2="26.7038" gradientUnits="userSpaceOnUse">
<stop stop-color="#86040E"/>
<stop offset="1" stop-color="#FAB64C"/>
</linearGradient>
</defs>
</svg>
